<?xml version="1.0" standalone="no"?>
<!DOCTYPE svg PUBLIC "-//W3C//DTD SVG 20010904//EN"
 "http://www.w3.org/TR/2001/REC-SVG-20010904/DTD/svg10.dtd">
<svg version="1.0" xmlns="http://www.w3.org/2000/svg"
 width="1059.000000pt" height="282.000000pt" viewBox="0 0 1059.000000 282.000000"
 preserveAspectRatio="xMidYMid meet">

<g transform="translate(0.000000,282.000000) scale(0.100000,-0.100000)"
fill="#000000" stroke="none">
<path d="M0 1410 l0 -1410 5295 0 5295 0 0 1410 0 1410 -5295 0 -5295 0 0
-1410z m2078 964 c66 -13 202 -66 202 -78 0 -4 -76 21 -99 34 -9 4 -29 10 -46
13 -16 3 -57 11 -90 17 -111 22 -280 4 -413 -44 -251 -91 -464 -374 -480 -638
-6 -103 0 -131 30 -145 51 -23 88 23 88 111 0 64 27 161 66 241 120 247 427
399 689 340 108 -24 279 -104 261 -122 -3 -3 -17 4 -33 14 -33 23 -141 76
-163 79 -8 1 -49 7 -90 14 -120 18 -230 -1 -359 -62 -65 -31 -100 -56 -155
-111 -116 -116 -170 -233 -185 -398 -9 -95 -22 -122 -70 -140 -38 -15 -86 6
-105 45 -31 65 -10 223 48 366 91 224 326 417 565 465 92 18 247 18 339 -1z
m266 -123 c-2 -3 -12 3 -22 13 -16 17 -16 18 5 5 12 -7 20 -15 17 -18z m-259
-226 c56 -23 85 -44 145 -105 48 -46 77 -84 78 -98 1 -21 -2 -20 -22 10 -12
18 -25 40 -28 49 -11 28 -150 119 -208 136 -81 24 -211 21 -282 -6 -125 -48
-224 -151 -269 -279 -17 -47 -22 -92 -26 -249 -5 -153 -9 -193 -19 -193 -11 0
-14 36 -14 183 0 169 2 189 25 257 54 159 154 259 313 311 85 28 215 21 307
-16z m272 -357 c-3 -8 -6 -5 -6 6 -1 11 2 17 5 13 3 -3 4 -12 1 -19z m1021
-101 c2 -91 0 -107 -13 -107 -13 0 -15 18 -15 111 0 84 3 110 13 107 8 -3 13
-37 15 -111z m162 27 c60 -98 71 -97 68 8 -2 68 2 85 21 73 14 -8 15 -212 1
-220 -22 -14 -47 9 -93 85 -27 44 -52 80 -57 80 -5 0 -10 -36 -12 -80 -4 -113
-22 -101 -26 17 -3 109 0 123 26 123 13 0 36 -27 72 -86z m320 76 c0 -5 -28
-10 -62 -12 l-63 -3 0 -35 c0 -35 0 -35 48 -38 26 -2 47 -7 47 -12 0 -5 -21
-10 -47 -12 l-48 -3 -5 -48 c-9 -82 -25 -53 -28 50 -1 53 0 103 2 110 6 15
156 19 156 3z m256 -9 c62 -38 69 -123 15 -175 -95 -91 -246 17 -186 134 30
57 112 77 171 41z m264 -1 c23 -23 26 -72 6 -89 -11 -10 -11 -17 5 -48 22 -42
24 -59 9 -68 -6 -4 -18 11 -27 33 -10 27 -25 45 -43 52 -48 20 -64 10 -70 -40
-9 -78 -25 -45 -28 57 -1 53 0 103 2 110 4 9 25 13 66 13 47 0 64 -4 80 -20z
m168 -67 c19 -46 38 -83 42 -83 4 0 23 37 42 83 27 64 40 83 57 85 21 3 22 2
19 -107 -3 -128 -20 -153 -28 -41 l-5 75 -28 -59 c-15 -32 -27 -62 -27 -66 0
-4 -7 -13 -16 -20 -21 -18 -33 -3 -70 85 l-29 70 -5 -78 c-8 -118 -25 -100
-28 31 -3 112 -2 113 19 110 17 -2 30 -21 57 -85z m401 -19 c38 -97 44 -133
20 -118 -6 3 -14 17 -19 30 -9 21 -16 24 -65 24 -49 0 -56 -3 -65 -24 -5 -13
-13 -27 -19 -30 -23 -14 -19 17 9 90 69 174 81 176 139 28z m251 88 c35 -28
16 -47 -20 -20 -25 18 -33 20 -55 10 -41 -19 -30 -53 21 -68 59 -17 81 -30 87
-54 7 -28 -28 -68 -67 -76 -37 -6 -90 15 -99 41 -8 20 19 20 39 0 18 -18 65
-20 82 -3 27 27 13 47 -43 64 -65 18 -93 50 -76 83 24 43 92 55 131 23z m128
-94 c-4 -140 -22 -148 -26 -11 -3 101 0 123 18 123 7 0 10 -38 8 -112z m210 9
l3 -96 62 -3 c34 -2 62 -7 62 -13 0 -13 -135 -19 -147 -7 -5 5 -9 53 -9 108
-1 122 -2 117 14 112 8 -3 13 -35 15 -101z m371 -2 c39 -96 45 -135 20 -119
-6 3 -14 17 -19 30 -8 21 -16 24 -62 24 -49 0 -54 -3 -71 -32 -12 -21 -21 -28
-28 -21 -7 7 2 41 27 104 42 107 50 119 74 119 12 0 28 -29 59 -105z m177 65
c15 -22 30 -40 34 -40 4 0 19 18 34 40 14 22 33 40 41 40 21 0 19 -5 -17 -58
-26 -36 -34 -61 -38 -107 -4 -44 -9 -60 -20 -60 -11 0 -16 16 -20 60 -4 47
-12 70 -38 104 -36 49 -39 61 -17 61 8 0 27 -18 41 -40z m371 -69 c45 -112 46
-144 4 -92 -23 27 -32 31 -74 31 -41 0 -49 -4 -59 -24 -12 -28 -38 -42 -38
-22 0 8 18 58 40 112 22 54 40 100 40 102 0 2 10 2 22 0 18 -2 31 -23 65 -107z
m207 22 c28 -46 54 -83 58 -83 5 0 8 38 8 85 0 70 3 85 15 85 13 0 15 -17 13
-112 -4 -151 -16 -154 -97 -26 l-60 93 -3 -88 c-4 -129 -22 -114 -26 21 -3
112 -2 113 19 110 16 -2 38 -28 73 -85z m335 -15 c23 -57 41 -108 41 -115 0
-20 -26 -4 -38 23 -10 21 -18 24 -61 24 -44 0 -52 -4 -72 -31 -41 -58 -41 -15
2 87 50 120 46 114 68 114 14 0 29 -25 60 -102z m211 17 c28 -47 56 -83 61
-80 5 4 9 40 8 81 -1 78 2 91 20 79 14 -8 15 -212 1 -220 -22 -14 -47 9 -94
85 -27 44 -52 80 -57 80 -4 0 -9 -36 -11 -80 -4 -113 -22 -101 -26 17 -3 110
0 123 27 123 14 0 35 -25 71 -85z m342 3 c19 -45 38 -83 44 -85 5 -2 23 31 39
73 32 81 46 99 70 90 12 -4 15 -26 15 -111 0 -98 -1 -105 -20 -105 -18 0 -20
7 -20 66 0 36 -4 63 -8 60 -5 -3 -19 -32 -33 -65 -36 -93 -50 -91 -94 14 l-30
70 -3 -72 c-3 -65 -5 -73 -22 -73 -18 0 -20 7 -20 94 0 106 5 126 30 126 12 0
27 -24 52 -82z m406 -27 c27 -68 39 -108 33 -114 -7 -7 -16 1 -28 21 -17 29
-22 32 -70 32 -48 0 -54 -2 -68 -30 -16 -31 -35 -40 -35 -17 0 6 19 58 41 115
56 138 67 137 127 -7z m252 91 c14 -11 20 -24 16 -31 -6 -9 -12 -9 -25 3 -28
26 -85 25 -95 0 -9 -23 7 -39 56 -53 53 -16 78 -37 78 -66 0 -57 -106 -84
-152 -38 -29 29 -15 42 21 20 36 -21 75 -22 92 -1 19 23 0 46 -51 61 -78 23
-98 57 -58 100 27 29 86 31 118 5z m164 -22 c14 -22 30 -40 34 -40 4 0 18 18
32 40 23 38 50 53 50 29 0 -6 -15 -31 -32 -57 -24 -34 -34 -62 -38 -100 -7
-69 -24 -71 -28 -3 -2 41 -11 64 -38 103 -37 55 -41 68 -20 68 7 0 25 -18 40
-40z m367 -64 c21 -54 39 -104 39 -112 0 -24 -19 -15 -35 17 -15 28 -19 30
-68 27 -45 -3 -53 -6 -65 -30 -13 -28 -26 -35 -36 -20 -4 7 17 64 68 185 12
30 20 38 37 35 16 -2 29 -24 60 -102z m259 84 c23 -23 26 -58 7 -85 -12 -15
-12 -22 -1 -45 19 -36 21 -72 6 -77 -7 -3 -15 7 -18 26 -8 39 -49 73 -83 69
-23 -3 -27 -9 -31 -48 -9 -78 -25 -45 -28 57 -1 53 0 103 2 110 4 9 25 13 66
13 47 0 64 -4 80 -20z m227 8 c18 -24 83 -199 78 -209 -9 -13 -25 -1 -35 27
-9 21 -16 24 -65 24 -49 0 -56 -3 -65 -24 -5 -13 -13 -27 -19 -30 -25 -16 -19
22 20 119 42 105 61 125 86 93z m185 -40 l3 -53 53 53 c64 63 99 72 51 12
l-33 -40 32 -28 c30 -27 57 -95 45 -115 -8 -13 -33 21 -33 44 0 22 -30 56 -56
63 -31 9 -57 -16 -63 -63 -12 -81 -26 -48 -29 67 -2 93 0 112 12 112 11 0 16
-14 18 -52z m396 -57 c43 -107 45 -151 3 -92 -20 27 -28 31 -71 31 -45 0 -51
-3 -66 -31 -11 -22 -19 -28 -26 -21 -8 8 2 43 32 117 57 141 68 141 128 -4z
m282 100 c0 -6 -15 -11 -32 -13 l-33 -3 -5 -98 c-3 -55 -9 -97 -15 -97 -6 0
-12 42 -15 97 l-5 98 -32 3 c-67 7 -30 22 52 22 47 0 85 -4 85 -9z m-8530
-160 c0 -88 3 -166 6 -175 5 -13 25 -16 115 -16 90 0 109 -3 109 -15 0 -13
-21 -15 -130 -15 l-130 0 0 190 c0 162 2 190 15 190 13 0 15 -24 15 -159z
m402 14 c64 -155 70 -167 84 -172 5 -2 27 40 49 93 22 53 51 124 65 158 22 51
30 61 53 64 l27 3 0 -190 c0 -104 -4 -192 -9 -195 -4 -3 -11 -28 -14 -56 -8
-69 -66 -185 -119 -239 -54 -55 -128 -103 -193 -126 -67 -23 -217 -23 -286 0
-131 44 -234 139 -284 263 -27 65 -45 180 -28 169 6 -4 13 -33 16 -66 14 -129
116 -263 246 -324 62 -30 73 -32 181 -32 109 0 119 2 182 32 145 68 231 187
260 358 14 83 21 325 10 325 -11 0 -31 -42 -92 -193 -37 -90 -47 -107 -63
-105 -25 4 -28 10 -102 196 -38 93 -54 118 -57 85 -3 -45 -6 -115 -7 -195 -1
-71 -4 -88 -16 -88 -13 0 -15 28 -15 191 l0 190 28 -3 c25 -3 32 -14 84 -143z
m555 -130 c33 -23 47 -78 40 -159 -29 -326 -262 -606 -582 -698 -105 -30 -306
-32 -405 -5 -106 29 -242 98 -293 149 -28 28 -14 22 58 -26 82 -56 151 -82
280 -108 186 -37 386 2 553 109 211 135 351 381 352 617 0 76 -15 106 -55 106
-39 0 -55 -31 -65 -128 -5 -50 -17 -112 -26 -139 -85 -252 -292 -417 -564
-449 -60 -7 -234 19 -257 38 -7 6 -13 8 -13 4 0 -10 -101 43 -153 81 -59 43
-55 56 5 15 72 -49 144 -82 219 -97 374 -79 725 179 756 555 6 79 22 122 50
139 26 15 76 13 100 -4z m-1235 -22 c15 -15 28 -35 28 -45 0 -26 -15 -22 -17
5 -1 12 -15 32 -30 44 -15 13 -24 23 -19 23 6 0 23 -12 38 -27z m2139 -33 c10
-6 19 -16 19 -22 0 -7 -5 -7 -14 1 -8 7 -27 11 -43 9 -22 -2 -28 -8 -28 -27 0
-20 7 -27 35 -34 35 -9 70 -33 70 -49 0 -18 -42 -48 -68 -48 -31 0 -71 24 -60
35 4 4 14 0 23 -9 29 -29 85 -15 85 22 0 7 -25 24 -55 37 -61 27 -71 52 -33
79 26 19 42 20 69 6z m219 -61 c0 -72 12 -99 45 -99 32 0 48 32 49 100 1 30 6
55 11 55 6 0 9 -27 7 -65 -2 -71 -22 -100 -67 -100 -44 0 -64 29 -65 95 -2 82
-1 87 10 80 6 -3 10 -33 10 -66z m327 1 c15 -38 33 -70 38 -70 6 0 23 32 38
71 16 39 34 68 40 66 16 -5 22 -156 7 -171 -7 -7 -10 9 -10 52 0 34 -3 62 -7
62 -5 -1 -20 -28 -35 -60 -15 -33 -31 -60 -35 -60 -5 0 -22 28 -38 63 l-29 62
-4 -62 c-5 -93 -22 -77 -22 20 0 123 15 130 57 27z m413 60 c0 -5 -22 -10 -50
-10 l-50 0 0 -35 c0 -34 1 -35 43 -36 l42 -2 -40 -6 c-36 -5 -40 -9 -40 -36 0
-29 2 -30 50 -36 l50 -6 -62 -1 -63 -2 0 90 0 90 60 0 c33 0 60 -4 60 -10z
m235 -63 c22 -36 43 -66 48 -67 4 0 7 29 7 64 0 36 5 68 10 71 6 4 10 -27 10
-84 0 -114 -12 -118 -71 -21 -24 39 -47 70 -51 70 -5 0 -8 -32 -8 -71 0 -44
-4 -68 -10 -64 -5 3 -10 41 -10 84 0 116 14 119 75 18z m355 63 c0 -5 -22 -10
-50 -10 l-50 0 0 -35 c0 -34 2 -35 38 -36 l37 -2 -35 -6 c-31 -5 -35 -10 -35
-36 0 -29 2 -30 50 -36 l50 -6 -62 -1 -63 -2 0 83 c0 46 3 87 7 90 10 11 113
8 113 -3z m280 -10 c43 -43 7 -100 -64 -100 -21 0 -26 -5 -26 -24 0 -14 -4
-28 -10 -31 -6 -4 -10 27 -10 84 l0 91 45 0 c32 0 51 -6 65 -20z m-4026 -356
c3 -8 2 -12 -4 -9 -6 3 -10 10 -10 16 0 14 7 11 14 -7z m56 -75 c0 -6 -4 -7
-10 -4 -5 3 -10 11 -10 16 0 6 5 7 10 4 6 -3 10 -11 10 -16z m56 -56 c-7 -7
-26 7 -26 19 0 6 6 6 15 -2 9 -7 13 -15 11 -17z"/>
<path d="M4025 1649 c-66 -18 -86 -95 -37 -142 36 -35 89 -37 120 -4 65 69 8
170 -83 146z"/>
<path d="M4272 1652 c-8 -6 -12 -23 -10 -43 3 -31 6 -34 39 -37 52 -4 83 30
61 66 -11 16 -73 26 -90 14z"/>
<path d="M4864 1595 c-22 -54 -19 -65 21 -65 25 0 35 4 35 15 0 20 -27 85 -35
85 -3 0 -13 -16 -21 -35z"/>
<path d="M5825 1594 c-22 -54 -20 -64 18 -64 19 0 36 2 39 5 7 7 -25 95 -34
95 -4 0 -15 -16 -23 -36z"/>
<path d="M6368 1586 c-9 -24 -14 -47 -11 -50 4 -3 22 -6 41 -6 31 0 34 2 28
25 -11 43 -25 75 -34 75 -4 0 -15 -20 -24 -44z"/>
<path d="M6920 1605 c-5 -14 -13 -37 -16 -50 -6 -23 -3 -25 28 -25 19 0 37 3
41 6 7 8 -25 94 -35 94 -5 0 -13 -11 -18 -25z"/>
<path d="M7868 1586 c-9 -24 -14 -47 -11 -50 4 -3 22 -6 41 -6 31 0 34 2 28
25 -11 43 -25 75 -34 75 -4 0 -15 -20 -24 -44z"/>
<path d="M8656 1590 c-22 -56 -21 -60 24 -60 22 0 40 3 40 7 0 16 -33 93 -40
93 -4 0 -15 -18 -24 -40z"/>
<path d="M8884 1636 c-13 -54 12 -77 71 -62 58 15 31 86 -31 86 -27 0 -35 -5
-40 -24z"/>
<path d="M9184 1595 c-22 -54 -19 -65 21 -65 23 0 35 5 35 14 0 17 -28 86 -36
86 -3 0 -12 -16 -20 -35z"/>
<path d="M9719 1585 c-9 -24 -14 -47 -11 -50 3 -3 21 -5 40 -5 31 0 34 2 28
25 -11 42 -25 75 -33 75 -5 0 -15 -20 -24 -45z"/>
<path d="M5160 1290 l0 -41 36 3 c22 2 42 10 48 21 17 26 -5 51 -48 55 l-36 3
0 -41z"/>
</g>
</svg>
